<svg width="348" height="145" viewBox="0 0 348 145" fill="none" xmlns="http://www.w3.org/2000/svg">
<path fill-rule="evenodd" clip-rule="evenodd" d="M347.643 74.9199C347.643 50.1402 335.669 30.5874 312.783 30.5874C289.799 30.5874 275.894 50.1402 275.894 74.7263C275.894 103.862 292.31 118.575 315.873 118.575C327.364 118.575 336.055 115.961 342.622 112.283V92.9239C336.055 96.215 328.523 98.2477 318.963 98.2477C309.596 98.2477 301.291 94.9566 300.229 83.5347H347.45C347.45 82.2764 347.643 77.243 347.643 74.9199ZM299.939 65.7243C299.939 54.7864 306.602 50.237 312.686 50.237C318.577 50.237 324.853 54.7864 324.853 65.7243H299.939ZM238.619 30.5874C229.155 30.5874 223.071 35.0401 219.691 38.1375L218.436 32.1362H197.191V145L221.333 139.87L221.43 112.477C224.906 114.993 230.024 118.575 238.522 118.575C255.808 118.575 271.548 104.636 271.548 73.9519C271.452 45.8812 255.518 30.5874 238.619 30.5874ZM232.825 97.2797C227.127 97.2797 223.747 95.247 221.43 92.7303L221.333 56.8191C223.844 54.012 227.32 52.0761 232.825 52.0761C241.612 52.0761 247.696 61.9493 247.696 74.6295C247.696 87.6001 241.709 97.2797 232.825 97.2797ZM163.972 24.8765L188.21 19.6495V0L163.972 5.13017V24.8765ZM163.972 32.233H188.21V116.929H163.972V32.233ZM137.995 39.3959L136.45 32.233H115.591V116.929H139.733V59.5294C145.431 52.0761 155.088 53.4312 158.081 54.496V32.233C154.991 31.0714 143.693 28.9419 137.995 39.3959ZM89.7113 11.2283L66.1488 16.2617L66.0523 93.7951C66.0523 108.121 76.7713 118.672 91.0633 118.672C98.9818 118.672 104.776 117.22 107.963 115.477V95.8278C104.872 97.0861 89.6148 101.539 89.6148 87.2129V52.8505H107.963V32.233H89.6148L89.7113 11.2283ZM24.4316 56.8191C24.4316 53.0441 27.5218 51.5921 32.6399 51.5921C39.979 51.5921 49.2495 53.8184 56.5886 57.787V35.04C48.5735 31.8458 40.655 30.5874 32.6399 30.5874C13.0366 30.5874 0 40.8478 0 57.9806C0 84.6963 36.6957 80.4372 36.6957 91.9559C36.6957 96.4085 32.833 97.8605 27.4252 97.8605C19.4101 97.8605 9.17392 94.5694 1.06224 90.1168V113.154C10.043 117.026 19.1204 118.672 27.4252 118.672C47.5113 118.672 61.3204 108.702 61.3204 91.3752C61.2239 62.53 24.4316 67.6602 24.4316 56.8191Z" fill="#635BFF"/>
</svg>
