<svg width="24" height="26" viewBox="0 0 24 26" fill="none" xmlns="http://www.w3.org/2000/svg">
<path d="M17.6293 16.355H23.5793V25.56C23.3226 25.63 22.9493 25.7 22.4593 25.77C21.9926 25.84 21.4793 25.875 20.9193 25.875C19.776 25.875 18.936 25.6767 18.3993 25.28C17.886 24.8833 17.6293 24.1483 17.6293 23.075V16.355ZM23.5793 19.47H17.6293V8.83C17.886 8.76 18.2476 8.69 18.7143 8.62C19.2043 8.55 19.7293 8.515 20.2893 8.515C21.456 8.515 22.296 8.71333 22.8093 9.11C23.3226 9.48333 23.5793 10.2183 23.5793 11.315V19.47Z" fill="#7C3BED"/>
<path d="M0 10.125H6.125V25.385L3.255 25.7C2.25167 25.7 1.45833 25.4083 0.875 24.825C0.291667 24.2417 0 23.4483 0 22.445V10.125ZM3.255 25.7V20.765H14.14C14.3033 21.0217 14.455 21.36 14.595 21.78C14.735 22.2 14.805 22.655 14.805 23.145C14.805 24.0083 14.6183 24.65 14.245 25.07C13.8717 25.49 13.3583 25.7 12.705 25.7H3.255ZM6.125 18.21H0V4.315C0.28 4.26833 0.688333 4.21 1.225 4.14C1.785 4.04667 2.32167 4 2.835 4C4.00167 4 4.84167 4.19833 5.355 4.595C5.86833 4.99167 6.125 5.76167 6.125 6.905V18.21Z" fill="#7C3BED"/>
<path fill-rule="evenodd" clip-rule="evenodd" d="M24 3.5C24 5.433 22.433 7 20.5 7C18.567 7 17 5.433 17 3.5C17 1.567 18.567 0 20.5 0C22.433 0 24 1.567 24 3.5ZM23 3C23 3.50745 22.622 3.5045 22.1322 3.50068H22.1322C22.0889 3.50034 22.0448 3.5 22 3.5C21.9552 3.5 21.9111 3.50034 21.8678 3.50068H21.8678C21.378 3.5045 21 3.50745 21 3C21 2.44772 21.4477 2 22 2C22.5523 2 23 2.44772 23 3ZM19.1322 3.50068C19.622 3.5045 20 3.50745 20 3C20 2.44772 19.5523 2 19 2C18.4477 2 18 2.44772 18 3C18 3.50745 18.378 3.5045 18.8678 3.50068C18.911 3.50034 18.9552 3.5 19 3.5C19.0448 3.5 19.089 3.50034 19.1322 3.50068Z" fill="#7C3BED"/>
</svg>
