<svg width="132" height="32" viewBox="0 0 132 32" fill="none" xmlns="http://www.w3.org/2000/svg">
<path d="M117.715 20.4454C117.364 19.6502 116.99 18.738 116.593 17.709C116.195 16.6565 115.774 15.4053 115.33 13.9552C114.909 12.4818 114.441 10.7043 113.926 8.62275C114.254 8.29532 114.686 8.01466 115.224 7.78078C115.786 7.52352 116.394 7.39488 117.049 7.39488C117.867 7.39488 118.545 7.57029 119.083 7.92111C119.621 8.24854 120.019 8.88002 120.276 9.81553C120.744 11.4527 121.212 13.0782 121.679 14.6919C122.147 16.2823 122.603 17.8727 123.048 19.4631H123.188C123.562 18.3872 123.925 17.2061 124.276 15.9198C124.65 14.6334 124.989 13.3237 125.293 11.9906C125.62 10.6341 125.889 9.32439 126.1 8.06144C126.497 7.85095 126.907 7.68723 127.328 7.57029C127.749 7.45335 128.193 7.39488 128.661 7.39488C129.479 7.39488 130.193 7.57029 130.801 7.92111C131.409 8.27193 131.713 8.88002 131.713 9.74537C131.713 10.4938 131.619 11.3591 131.432 12.3414C131.245 13.3237 130.988 14.3645 130.66 15.4637C130.333 16.563 129.959 17.6739 129.538 18.7965C129.117 19.8957 128.672 20.9599 128.205 21.989C127.737 22.9946 127.269 23.9068 126.801 24.7253C125.492 26.994 124.276 28.6779 123.153 29.7771C122.03 30.8764 120.896 31.426 119.75 31.426C118.814 31.426 118.031 31.1336 117.399 30.5489C116.768 29.9642 116.394 29.2041 116.277 28.2686C116.768 27.8476 117.259 27.3916 117.75 26.9004C118.265 26.4093 118.756 25.883 119.224 25.3217C119.692 24.7838 120.112 24.2459 120.487 23.708C120.089 23.591 119.656 23.3221 119.189 22.9011C118.744 22.4567 118.253 21.6381 117.715 20.4454Z" fill="#7C3BED"/>
<path d="M106.041 12.7624V16.7618H100.078V11.8503C100.078 11.1721 100.253 10.5874 100.604 10.0962C100.978 9.58168 101.457 9.13731 102.042 8.7631C102.861 8.27195 103.82 7.89774 104.919 7.64048C106.018 7.38321 107.152 7.25458 108.322 7.25458C110.871 7.25458 112.146 8.15501 112.146 9.95588C112.146 10.3769 112.087 10.7745 111.97 11.1487C111.853 11.4995 111.713 11.8035 111.549 12.0608C111.315 12.014 111.035 11.9789 110.707 11.9556C110.38 11.9322 110.017 11.9205 109.62 11.9205C109.035 11.9205 108.415 11.9906 107.76 12.131C107.106 12.2713 106.533 12.4818 106.041 12.7624ZM100.078 15.5339H106.041V24.7604C105.784 24.8306 105.41 24.9008 104.919 24.9709C104.451 25.0411 103.937 25.0762 103.375 25.0762C102.229 25.0762 101.387 24.8774 100.849 24.4798C100.335 24.0822 100.078 23.3455 100.078 22.2696V15.5339Z" fill="#7C3BED"/>
<path d="M91.9607 12.7624V16.7618H85.9968V11.8503C85.9968 11.1721 86.1722 10.5874 86.523 10.0962C86.8972 9.58168 87.3767 9.13731 87.9614 8.7631C88.78 8.27195 89.7389 7.89774 90.8381 7.64048C91.9373 7.38321 93.0717 7.25458 94.2411 7.25458C96.7904 7.25458 98.065 8.15501 98.065 9.95588C98.065 10.3769 98.0065 10.7745 97.8896 11.1487C97.7726 11.4995 97.6323 11.8035 97.4686 12.0608C97.2347 12.014 96.9541 11.9789 96.6266 11.9556C96.2992 11.9322 95.9367 11.9205 95.5391 11.9205C94.9544 11.9205 94.3346 11.9906 93.6798 12.131C93.0249 12.2713 92.4519 12.4818 91.9607 12.7624ZM85.9968 15.5339H91.9607V24.7604C91.7035 24.8306 91.3293 24.9008 90.8381 24.9709C90.3704 25.0411 89.8558 25.0762 89.2945 25.0762C88.1485 25.0762 87.3065 24.8774 86.7686 24.4798C86.2541 24.0822 85.9968 23.3455 85.9968 22.2696V15.5339Z" fill="#7C3BED"/>
<path d="M69.6196 18.9369L69.4091 15.0077L77.513 13.6746C77.4663 13.2068 77.2324 12.7391 76.8114 12.2713C76.3904 11.8035 75.7355 11.5697 74.8468 11.5697C73.9113 11.5697 73.1278 11.8737 72.4963 12.4818C71.8882 13.0899 71.5608 13.9552 71.514 15.0778L71.7245 18.0247C71.9584 19.1006 72.4846 19.849 73.3032 20.27C74.1452 20.691 75.0807 20.9014 76.1098 20.9014C77.092 20.9014 78.0276 20.7728 78.9163 20.5155C79.805 20.2583 80.5184 19.9776 81.0563 19.6736C81.4305 19.9075 81.7462 20.2349 82.0035 20.6559C82.2608 21.0769 82.3894 21.5212 82.3894 21.989C82.3894 22.7608 82.0971 23.404 81.5124 23.9185C80.9511 24.4096 80.1676 24.7721 79.1619 25.006C78.1562 25.2399 76.9985 25.3568 75.6888 25.3568C73.8645 25.3568 72.2157 25.0177 70.7422 24.3395C69.2922 23.6378 68.1345 22.5971 67.2691 21.2172C66.4271 19.8373 66.0062 18.1066 66.0062 16.0251C66.0062 14.4815 66.2517 13.1483 66.7429 12.0257C67.2574 10.9031 67.9357 9.99097 68.7776 9.28933C69.6196 8.58769 70.5551 8.07316 71.5842 7.74573C72.6366 7.39491 73.7125 7.2195 74.8117 7.2195C76.4723 7.2195 77.9223 7.54693 79.1619 8.20179C80.4014 8.83327 81.372 9.71031 82.0737 10.8329C82.7753 11.9322 83.1261 13.2068 83.1261 14.6569C83.1261 15.4521 82.9039 16.0601 82.4596 16.4811C82.0152 16.9021 81.3954 17.1711 80.6002 17.288L69.6196 18.9369Z" fill="#7C3BED"/>
<path d="M56.562 18.2703L52.2118 15.569L60.1053 7.50014C61.3214 7.50014 62.292 7.76911 63.0171 8.30703C63.7655 8.84495 64.1397 9.5232 64.1397 10.3418C64.1397 11.0434 63.8941 11.6632 63.403 12.2011C62.9118 12.739 62.1517 13.4524 61.1226 14.3411L56.562 18.2703ZM52.4925 16.411L57.2987 14.3411L64.701 21.7083C64.6074 22.7842 64.2917 23.6261 63.7538 24.2342C63.2159 24.8189 62.4441 25.1113 61.4384 25.1113C60.7133 25.1113 60.0468 24.9359 59.4387 24.585C58.854 24.2108 58.2225 23.591 57.5443 22.7257L52.4925 16.411ZM48.1072 15.5339H54.0712V24.7604C53.8139 24.8306 53.4397 24.9008 52.9486 24.9709C52.4808 25.0411 51.9663 25.0762 51.4049 25.0762C50.2589 25.0762 49.417 24.8774 48.879 24.4798C48.3645 24.0822 48.1072 23.3455 48.1072 22.2696V15.5339ZM54.0712 18.6562H48.1072V1.92212C48.3645 1.85196 48.727 1.78179 49.1948 1.71163C49.6859 1.64147 50.2122 1.60638 50.7735 1.60638C51.9429 1.60638 52.7848 1.80518 53.2994 2.20278C53.8139 2.57698 54.0712 3.3137 54.0712 4.41294V18.6562Z" fill="#7C3BED"/>
<path d="M44.3532 13.8149V17.0424H38.3893V13.9903C38.3893 13.2653 38.1671 12.7391 37.7227 12.4116C37.3018 12.0608 36.7404 11.8854 36.0388 11.8854C35.571 11.8854 35.1267 11.9439 34.7057 12.0608C34.3081 12.1777 33.9222 12.3298 33.548 12.5169V17.0424H27.5841V11.71C27.5841 11.0785 27.7127 10.564 27.97 10.1664C28.2506 9.76878 28.6248 9.40627 29.0926 9.07884C29.8878 8.51753 30.8935 8.07316 32.1096 7.74573C33.3258 7.39491 34.6589 7.2195 36.109 7.2195C38.7518 7.2195 40.7866 7.8042 42.2132 8.97359C43.6399 10.1196 44.3532 11.7334 44.3532 13.8149ZM27.5841 15.5339H33.548V24.7605C33.2907 24.8306 32.9165 24.9008 32.4254 24.9709C31.9576 25.0411 31.4431 25.0762 30.8818 25.0762C29.7358 25.0762 28.8938 24.8774 28.3559 24.4798C27.8413 24.0822 27.5841 23.3455 27.5841 22.2696V15.5339ZM38.3893 15.5339H44.3532V24.7605C44.0959 24.8306 43.7217 24.9008 43.2306 24.9709C42.7628 25.0411 42.2483 25.0762 41.687 25.0762C40.541 25.0762 39.699 24.8774 39.1611 24.4798C38.6466 24.0822 38.3893 23.3455 38.3893 22.2696V15.5339Z" fill="#7C3BED"/>
<path d="M17.8234 15.5339H23.7873V24.7604C23.53 24.8306 23.1558 24.9008 22.6647 24.9709C22.1969 25.0411 21.6824 25.0762 21.1211 25.0762C19.975 25.0762 19.1331 24.8774 18.5952 24.4798C18.0806 24.0822 17.8234 23.3455 17.8234 22.2696V15.5339ZM23.7873 18.6562H17.8234V7.99127C18.0806 7.92111 18.4431 7.85095 18.9109 7.78078C19.402 7.71062 19.9283 7.67554 20.4896 7.67554C21.659 7.67554 22.5009 7.87434 23.0155 8.27193C23.53 8.64614 23.7873 9.38286 23.7873 10.4821V18.6562Z" fill="#7C3BED"/>
<path d="M0.152771 9.28933H6.2921V24.585L3.41539 24.9008C2.40971 24.9008 1.61452 24.6084 1.02982 24.0237C0.44512 23.439 0.152771 22.6438 0.152771 21.6382V9.28933ZM3.41539 24.9008V19.9542H14.3259C14.4896 20.2115 14.6416 20.5506 14.7819 20.9716C14.9223 21.3926 14.9924 21.8486 14.9924 22.3398C14.9924 23.2051 14.8053 23.8483 14.4311 24.2693C14.0569 24.6903 13.5424 24.9008 12.8875 24.9008H3.41539ZM6.2921 17.3932H0.152771V3.46573C0.433426 3.41896 0.842715 3.36049 1.38064 3.29032C1.94195 3.19677 2.47987 3.14999 2.99441 3.14999C4.1638 3.14999 5.00577 3.34879 5.5203 3.74639C6.03484 4.14398 6.2921 4.91578 6.2921 6.06179V17.3932Z" fill="#7C3BED"/>
<path fill-rule="evenodd" clip-rule="evenodd" d="M24 3.11137C24 4.82974 22.607 6.22275 20.8886 6.22275C19.1703 6.22275 17.7773 4.82974 17.7773 3.11137C17.7773 1.39301 19.1703 0 20.8886 0C22.607 0 24 1.39301 24 3.11137ZM23.111 2.66689C23.111 3.11799 22.775 3.11537 22.3396 3.11197C22.3012 3.11167 22.2619 3.11137 22.2221 3.11137C22.1822 3.11137 22.143 3.11167 22.1045 3.11197C21.6691 3.11537 21.3331 3.11799 21.3331 2.66689C21.3331 2.17592 21.7311 1.77792 22.2221 1.77792C22.713 1.77792 23.111 2.17592 23.111 2.66689ZM19.6727 3.11197C20.1081 3.11537 20.4441 3.11799 20.4441 2.66689C20.4441 2.17592 20.0461 1.77792 19.5552 1.77792C19.0642 1.77792 18.6662 2.17592 18.6662 2.66689C18.6662 3.11799 19.0022 3.11537 19.4376 3.11197C19.4761 3.11167 19.5153 3.11137 19.5552 3.11137C19.595 3.11137 19.6343 3.11167 19.6727 3.11197Z" fill="#7C3BED"/>
</svg>
